<svg width="50" height="50" viewBox="0 0 50 50" fill="none" xmlns="http://www.w3.org/2000/svg">
<rect x="49.5" y="0.5" width="49" height="49" rx="24.5" transform="rotate(90 49.5 0.5)" stroke="#00AEC7"/>
<path fill-rule="evenodd" clip-rule="evenodd" d="M14.75 25C14.75 24.6685 14.8817 24.3506 15.1161 24.1162C15.3505 23.8818 15.6684 23.7501 15.9999 23.7501H30.4807L25.1138 18.3857C24.9976 18.2695 24.9055 18.1316 24.8426 17.9798C24.7797 17.8279 24.7473 17.6652 24.7473 17.5008C24.7473 17.3365 24.7797 17.1738 24.8426 17.0219C24.9055 16.8701 24.9976 16.7322 25.1138 16.6159C25.23 16.4997 25.368 16.4076 25.5198 16.3447C25.6717 16.2818 25.8344 16.2494 25.9987 16.2494C26.1631 16.2494 26.3258 16.2818 26.4776 16.3447C26.6295 16.4076 26.7674 16.4997 26.8836 16.6159L34.3828 24.1151C34.4992 24.2312 34.5915 24.3691 34.6546 24.521C34.7176 24.6728 34.75 24.8356 34.75 25C34.75 25.1644 34.7176 25.3272 34.6546 25.479C34.5915 25.6309 34.4992 25.7688 34.3828 25.8849L26.8836 33.3841C26.7674 33.5003 26.6295 33.5925 26.4776 33.6554C26.3258 33.7182 26.1631 33.7506 25.9987 33.7506C25.8344 33.7506 25.6717 33.7182 25.5198 33.6554C25.368 33.5925 25.23 33.5003 25.1138 33.3841C24.8792 33.1494 24.7473 32.8311 24.7473 32.4992C24.7473 32.3348 24.7797 32.1721 24.8426 32.0203C24.9055 31.8684 24.9976 31.7305 25.1138 31.6143L30.4807 26.2499H15.9999C15.6684 26.2499 15.3505 26.1182 15.1161 25.8838C14.8817 25.6494 14.75 25.3315 14.75 25Z" fill="#00AEC7"/>
</svg>
